<mxfile host="app.diagrams.net" agent="Mozilla/5.0 (Windows NT 10.0; Win64; x64) AppleWebKit/537.36 (KHTML, like Gecko) Chrome/135.0.0.0 Safari/537.36 Edg/135.0.0.0" version="26.2.14" pages="6">
  <diagram name="Main" id="TCXEpc08imBPfcZi9nZa">
    <mxGraphModel dx="2058" dy="752" grid="0" gridSize="10" guides="1" tooltips="1" connect="1" arrows="1" fold="1" page="1" pageScale="1" pageWidth="850" pageHeight="1100" math="0" shadow="0">
      <root>
        <mxCell id="0" />
        <mxCell id="1" parent="0" />
        <mxCell id="e7oS5J1CF7U_wuVs62tT-3" value="" style="edgeStyle=orthogonalEdgeStyle;rounded=0;orthogonalLoop=1;jettySize=auto;html=1;" parent="1" source="e7oS5J1CF7U_wuVs62tT-1" target="e7oS5J1CF7U_wuVs62tT-2" edge="1">
          <mxGeometry relative="1" as="geometry" />
        </mxCell>
        <mxCell id="e7oS5J1CF7U_wuVs62tT-1" value="Start" style="ellipse;whiteSpace=wrap;html=1;" parent="1" vertex="1">
          <mxGeometry x="350" y="20" width="120" height="80" as="geometry" />
        </mxCell>
        <mxCell id="e7oS5J1CF7U_wuVs62tT-5" value="" style="edgeStyle=orthogonalEdgeStyle;rounded=0;orthogonalLoop=1;jettySize=auto;html=1;" parent="1" source="4LVbHZIJ3RLVQ2EPkBoj-75" target="e7oS5J1CF7U_wuVs62tT-4" edge="1">
          <mxGeometry relative="1" as="geometry" />
        </mxCell>
        <mxCell id="e7oS5J1CF7U_wuVs62tT-2" value="Load&amp;nbsp; deanDailycsar.csv&lt;div&gt;And FTE_Tier.xlsx&lt;/div&gt;" style="shape=parallelogram;perimeter=parallelogramPerimeter;whiteSpace=wrap;html=1;fixedSize=1;rounded=0;" parent="1" vertex="1">
          <mxGeometry x="267.5" y="150" width="285" height="60" as="geometry" />
        </mxCell>
        <mxCell id="e7oS5J1CF7U_wuVs62tT-13" style="edgeStyle=orthogonalEdgeStyle;rounded=0;orthogonalLoop=1;jettySize=auto;html=1;exitX=0.5;exitY=1;exitDx=0;exitDy=0;entryX=0.5;entryY=0;entryDx=0;entryDy=0;exitPerimeter=0;" parent="1" source="e7oS5J1CF7U_wuVs62tT-4" target="e7oS5J1CF7U_wuVs62tT-11" edge="1">
          <mxGeometry relative="1" as="geometry" />
        </mxCell>
        <mxCell id="e7oS5J1CF7U_wuVs62tT-19" value="Option1" style="edgeLabel;html=1;align=center;verticalAlign=middle;resizable=0;points=[];" parent="e7oS5J1CF7U_wuVs62tT-13" vertex="1" connectable="0">
          <mxGeometry x="0.8353" y="1" relative="1" as="geometry">
            <mxPoint as="offset" />
          </mxGeometry>
        </mxCell>
        <mxCell id="e7oS5J1CF7U_wuVs62tT-15" style="edgeStyle=orthogonalEdgeStyle;rounded=0;orthogonalLoop=1;jettySize=auto;html=1;exitX=0.5;exitY=1;exitDx=0;exitDy=0;entryX=0.5;entryY=0;entryDx=0;entryDy=0;" parent="1" source="e7oS5J1CF7U_wuVs62tT-4" target="e7oS5J1CF7U_wuVs62tT-7" edge="1">
          <mxGeometry relative="1" as="geometry" />
        </mxCell>
        <mxCell id="e7oS5J1CF7U_wuVs62tT-24" value="Option 5" style="edgeLabel;html=1;align=center;verticalAlign=middle;resizable=0;points=[];" parent="e7oS5J1CF7U_wuVs62tT-15" vertex="1" connectable="0">
          <mxGeometry x="0.8313" relative="1" as="geometry">
            <mxPoint as="offset" />
          </mxGeometry>
        </mxCell>
        <mxCell id="e7oS5J1CF7U_wuVs62tT-16" style="edgeStyle=orthogonalEdgeStyle;rounded=0;orthogonalLoop=1;jettySize=auto;html=1;exitX=0.5;exitY=1;exitDx=0;exitDy=0;entryX=0.5;entryY=0;entryDx=0;entryDy=0;" parent="1" source="e7oS5J1CF7U_wuVs62tT-4" target="e7oS5J1CF7U_wuVs62tT-9" edge="1">
          <mxGeometry relative="1" as="geometry" />
        </mxCell>
        <mxCell id="e7oS5J1CF7U_wuVs62tT-21" value="Option 3" style="edgeLabel;html=1;align=center;verticalAlign=middle;resizable=0;points=[];" parent="e7oS5J1CF7U_wuVs62tT-16" vertex="1" connectable="0">
          <mxGeometry x="0.42" y="1" relative="1" as="geometry">
            <mxPoint as="offset" />
          </mxGeometry>
        </mxCell>
        <mxCell id="e7oS5J1CF7U_wuVs62tT-17" style="edgeStyle=orthogonalEdgeStyle;rounded=0;orthogonalLoop=1;jettySize=auto;html=1;exitX=0.5;exitY=1;exitDx=0;exitDy=0;entryX=0.5;entryY=0;entryDx=0;entryDy=0;" parent="1" source="e7oS5J1CF7U_wuVs62tT-4" target="e7oS5J1CF7U_wuVs62tT-8" edge="1">
          <mxGeometry relative="1" as="geometry" />
        </mxCell>
        <mxCell id="e7oS5J1CF7U_wuVs62tT-22" value="Option 4" style="edgeLabel;html=1;align=center;verticalAlign=middle;resizable=0;points=[];" parent="e7oS5J1CF7U_wuVs62tT-17" vertex="1" connectable="0">
          <mxGeometry x="0.71" y="-1" relative="1" as="geometry">
            <mxPoint as="offset" />
          </mxGeometry>
        </mxCell>
        <mxCell id="e7oS5J1CF7U_wuVs62tT-18" style="edgeStyle=orthogonalEdgeStyle;rounded=0;orthogonalLoop=1;jettySize=auto;html=1;exitX=0.5;exitY=1;exitDx=0;exitDy=0;entryX=0.5;entryY=0;entryDx=0;entryDy=0;" parent="1" source="e7oS5J1CF7U_wuVs62tT-4" target="e7oS5J1CF7U_wuVs62tT-10" edge="1">
          <mxGeometry relative="1" as="geometry" />
        </mxCell>
        <mxCell id="e7oS5J1CF7U_wuVs62tT-20" value="Option2" style="edgeLabel;html=1;align=center;verticalAlign=middle;resizable=0;points=[];" parent="e7oS5J1CF7U_wuVs62tT-18" vertex="1" connectable="0">
          <mxGeometry x="0.7545" y="-6" relative="1" as="geometry">
            <mxPoint as="offset" />
          </mxGeometry>
        </mxCell>
        <mxCell id="e7oS5J1CF7U_wuVs62tT-26" style="edgeStyle=orthogonalEdgeStyle;rounded=0;orthogonalLoop=1;jettySize=auto;html=1;exitX=0.5;exitY=1;exitDx=0;exitDy=0;" parent="1" source="e7oS5J1CF7U_wuVs62tT-4" target="e7oS5J1CF7U_wuVs62tT-25" edge="1">
          <mxGeometry relative="1" as="geometry" />
        </mxCell>
        <mxCell id="e7oS5J1CF7U_wuVs62tT-27" value="Option 6" style="edgeLabel;html=1;align=center;verticalAlign=middle;resizable=0;points=[];" parent="e7oS5J1CF7U_wuVs62tT-26" vertex="1" connectable="0">
          <mxGeometry x="0.88" relative="1" as="geometry">
            <mxPoint as="offset" />
          </mxGeometry>
        </mxCell>
        <mxCell id="e7oS5J1CF7U_wuVs62tT-4" value="Load and display Menu" style="shape=parallelogram;perimeter=parallelogramPerimeter;whiteSpace=wrap;html=1;fixedSize=1;" parent="1" vertex="1">
          <mxGeometry x="350" y="296" width="120" height="60" as="geometry" />
        </mxCell>
        <mxCell id="e7oS5J1CF7U_wuVs62tT-7" value="FTE per course" style="shape=offPageConnector;whiteSpace=wrap;html=1;size=0.5;" parent="1" vertex="1">
          <mxGeometry x="600" y="400" width="80" height="80" as="geometry" />
        </mxCell>
        <mxCell id="e7oS5J1CF7U_wuVs62tT-8" value="FTE per Instructor" style="shape=offPageConnector;whiteSpace=wrap;html=1;" parent="1" vertex="1">
          <mxGeometry x="480" y="400" width="80" height="80" as="geometry" />
        </mxCell>
        <mxCell id="e7oS5J1CF7U_wuVs62tT-9" value="FTE by Division" style="shape=offPageConnector;whiteSpace=wrap;html=1;" parent="1" vertex="1">
          <mxGeometry x="360" y="400" width="80" height="80" as="geometry" />
        </mxCell>
        <mxCell id="e7oS5J1CF7U_wuVs62tT-10" value="Get Course Enrollment Percentage" style="shape=offPageConnector;whiteSpace=wrap;html=1;" parent="1" vertex="1">
          <mxGeometry x="240" y="400" width="80" height="80" as="geometry" />
        </mxCell>
        <mxCell id="e7oS5J1CF7U_wuVs62tT-11" value="Enter Sec Divisions code&quot;" style="shape=offPageConnector;whiteSpace=wrap;html=1;" parent="1" vertex="1">
          <mxGeometry x="120" y="400" width="80" height="80" as="geometry" />
        </mxCell>
        <mxCell id="e7oS5J1CF7U_wuVs62tT-25" value="Exit" style="ellipse;whiteSpace=wrap;html=1;" parent="1" vertex="1">
          <mxGeometry x="720" y="400" width="100" height="60" as="geometry" />
        </mxCell>
        <mxCell id="4LVbHZIJ3RLVQ2EPkBoj-2" value="Display Division Codes&lt;div&gt;&lt;br&gt;&lt;div&gt;&lt;div&gt;-CBUS1 -CBUS3 -CGEN -CGEN3&amp;nbsp;&lt;/div&gt;&lt;div&gt;-CGEN4 -CGEN5 -CGEN6 -CHLT1&amp;nbsp;&lt;/div&gt;&lt;div&gt;-CHLT2 -CSUPP -CTEC1 -CTEC2&lt;/div&gt;&lt;div&gt;-CTEC3&lt;/div&gt;&lt;/div&gt;&lt;/div&gt;" style="shape=parallelogram;perimeter=parallelogramPerimeter;whiteSpace=wrap;html=1;fixedSize=1;" vertex="1" parent="1">
          <mxGeometry x="205" y="1334" width="321" height="141" as="geometry" />
        </mxCell>
        <mxCell id="4LVbHZIJ3RLVQ2EPkBoj-3" value="Option 1&lt;div&gt;&lt;br&gt;&lt;/div&gt;" style="text;html=1;align=center;verticalAlign=middle;resizable=0;points=[];autosize=1;strokeColor=none;fillColor=none;" vertex="1" parent="1">
          <mxGeometry x="40" y="1137" width="63" height="41" as="geometry" />
        </mxCell>
        <mxCell id="4LVbHZIJ3RLVQ2EPkBoj-7" value="Get Div code(s) from user" style="shape=parallelogram;perimeter=parallelogramPerimeter;whiteSpace=wrap;html=1;fixedSize=1;" vertex="1" parent="1">
          <mxGeometry x="268" y="1567" width="172" height="60" as="geometry" />
        </mxCell>
        <mxCell id="4LVbHZIJ3RLVQ2EPkBoj-13" style="edgeStyle=orthogonalEdgeStyle;rounded=0;orthogonalLoop=1;jettySize=auto;html=1;entryX=0.567;entryY=0.15;entryDx=0;entryDy=0;entryPerimeter=0;" edge="1" parent="1" source="4LVbHZIJ3RLVQ2EPkBoj-2" target="4LVbHZIJ3RLVQ2EPkBoj-7">
          <mxGeometry relative="1" as="geometry" />
        </mxCell>
        <mxCell id="4LVbHZIJ3RLVQ2EPkBoj-17" style="edgeStyle=orthogonalEdgeStyle;rounded=0;orthogonalLoop=1;jettySize=auto;html=1;entryX=0.5;entryY=0;entryDx=0;entryDy=0;" edge="1" parent="1" source="4LVbHZIJ3RLVQ2EPkBoj-14" target="4LVbHZIJ3RLVQ2EPkBoj-16">
          <mxGeometry relative="1" as="geometry" />
        </mxCell>
        <mxCell id="4LVbHZIJ3RLVQ2EPkBoj-14" value="write div code(s) data&amp;nbsp;&lt;div&gt;to own excel file&amp;nbsp;&lt;/div&gt;" style="shape=parallelogram;perimeter=parallelogramPerimeter;whiteSpace=wrap;html=1;fixedSize=1;" vertex="1" parent="1">
          <mxGeometry x="244" y="1686" width="189" height="60" as="geometry" />
        </mxCell>
        <mxCell id="4LVbHZIJ3RLVQ2EPkBoj-15" style="edgeStyle=orthogonalEdgeStyle;rounded=0;orthogonalLoop=1;jettySize=auto;html=1;exitX=0.5;exitY=1;exitDx=0;exitDy=0;entryX=0.587;entryY=0.067;entryDx=0;entryDy=0;entryPerimeter=0;" edge="1" parent="1" source="4LVbHZIJ3RLVQ2EPkBoj-7" target="4LVbHZIJ3RLVQ2EPkBoj-14">
          <mxGeometry relative="1" as="geometry" />
        </mxCell>
        <mxCell id="4LVbHZIJ3RLVQ2EPkBoj-16" value="return&amp;nbsp;&lt;div&gt;to&amp;nbsp;&lt;/div&gt;&lt;div&gt;main menu&amp;nbsp;&lt;/div&gt;" style="shape=offPageConnector;whiteSpace=wrap;html=1;" vertex="1" parent="1">
          <mxGeometry x="288" y="1814" width="91" height="89" as="geometry" />
        </mxCell>
        <mxCell id="4LVbHZIJ3RLVQ2EPkBoj-26" style="edgeStyle=orthogonalEdgeStyle;rounded=0;orthogonalLoop=1;jettySize=auto;html=1;" edge="1" parent="1" source="4LVbHZIJ3RLVQ2EPkBoj-24" target="4LVbHZIJ3RLVQ2EPkBoj-27">
          <mxGeometry relative="1" as="geometry">
            <mxPoint x="391" y="2465" as="targetPoint" />
          </mxGeometry>
        </mxCell>
        <mxCell id="4LVbHZIJ3RLVQ2EPkBoj-24" value="Get Course code from user&amp;nbsp;" style="shape=parallelogram;perimeter=parallelogramPerimeter;whiteSpace=wrap;html=1;fixedSize=1;" vertex="1" parent="1">
          <mxGeometry x="286" y="2304" width="210" height="68" as="geometry" />
        </mxCell>
        <mxCell id="4LVbHZIJ3RLVQ2EPkBoj-25" value="Option 2&lt;div&gt;&lt;br&gt;&lt;/div&gt;" style="text;html=1;align=center;verticalAlign=middle;resizable=0;points=[];autosize=1;strokeColor=none;fillColor=none;" vertex="1" parent="1">
          <mxGeometry x="116" y="2265" width="63" height="41" as="geometry" />
        </mxCell>
        <mxCell id="4LVbHZIJ3RLVQ2EPkBoj-30" style="edgeStyle=orthogonalEdgeStyle;rounded=0;orthogonalLoop=1;jettySize=auto;html=1;entryX=0.442;entryY=0.033;entryDx=0;entryDy=0;entryPerimeter=0;exitX=0.308;exitY=0.988;exitDx=0;exitDy=0;exitPerimeter=0;" edge="1" parent="1" source="4LVbHZIJ3RLVQ2EPkBoj-27" target="4LVbHZIJ3RLVQ2EPkBoj-31">
          <mxGeometry relative="1" as="geometry">
            <mxPoint x="391" y="2600" as="targetPoint" />
            <mxPoint x="374" y="2536" as="sourcePoint" />
          </mxGeometry>
        </mxCell>
        <mxCell id="4LVbHZIJ3RLVQ2EPkBoj-27" value="Calculate Enrollment&amp;nbsp;&lt;div&gt;Percentage for course&amp;nbsp;&lt;/div&gt;" style="rounded=0;whiteSpace=wrap;html=1;" vertex="1" parent="1">
          <mxGeometry x="331" y="2445" width="120" height="81" as="geometry" />
        </mxCell>
        <mxCell id="4LVbHZIJ3RLVQ2EPkBoj-31" value="Write information to an excel file" style="shape=parallelogram;perimeter=parallelogramPerimeter;whiteSpace=wrap;html=1;fixedSize=1;" vertex="1" parent="1">
          <mxGeometry x="279" y="2591" width="201" height="80" as="geometry" />
        </mxCell>
        <mxCell id="4LVbHZIJ3RLVQ2EPkBoj-32" value="Return to&amp;nbsp;&lt;div&gt;Main menu&lt;/div&gt;&lt;div&gt;&lt;br&gt;&lt;/div&gt;" style="shape=offPageConnector;whiteSpace=wrap;html=1;" vertex="1" parent="1">
          <mxGeometry x="334" y="2734" width="80" height="80" as="geometry" />
        </mxCell>
        <mxCell id="4LVbHZIJ3RLVQ2EPkBoj-33" style="edgeStyle=orthogonalEdgeStyle;rounded=0;orthogonalLoop=1;jettySize=auto;html=1;entryX=0.563;entryY=0.225;entryDx=0;entryDy=0;entryPerimeter=0;" edge="1" parent="1" source="4LVbHZIJ3RLVQ2EPkBoj-31" target="4LVbHZIJ3RLVQ2EPkBoj-32">
          <mxGeometry relative="1" as="geometry" />
        </mxCell>
        <mxCell id="4LVbHZIJ3RLVQ2EPkBoj-35" value="Option 3&amp;nbsp;" style="text;html=1;align=center;verticalAlign=middle;resizable=0;points=[];autosize=1;strokeColor=none;fillColor=none;" vertex="1" parent="1">
          <mxGeometry x="31" y="3355" width="67" height="26" as="geometry" />
        </mxCell>
        <mxCell id="4LVbHZIJ3RLVQ2EPkBoj-37" style="edgeStyle=orthogonalEdgeStyle;rounded=0;orthogonalLoop=1;jettySize=auto;html=1;" edge="1" parent="1" source="4LVbHZIJ3RLVQ2EPkBoj-36" target="4LVbHZIJ3RLVQ2EPkBoj-38">
          <mxGeometry relative="1" as="geometry">
            <mxPoint x="376.5" y="3654" as="targetPoint" />
          </mxGeometry>
        </mxCell>
        <mxCell id="4LVbHZIJ3RLVQ2EPkBoj-36" value="get division code from user" style="shape=parallelogram;perimeter=parallelogramPerimeter;whiteSpace=wrap;html=1;fixedSize=1;" vertex="1" parent="1">
          <mxGeometry x="288" y="3506" width="177" height="60" as="geometry" />
        </mxCell>
        <mxCell id="4LVbHZIJ3RLVQ2EPkBoj-38" value="Write data for division to&amp;nbsp;&lt;div&gt;it&#39;s own excel file&lt;/div&gt;" style="shape=parallelogram;perimeter=parallelogramPerimeter;whiteSpace=wrap;html=1;fixedSize=1;" vertex="1" parent="1">
          <mxGeometry x="285" y="3636" width="182" height="60" as="geometry" />
        </mxCell>
        <mxCell id="4LVbHZIJ3RLVQ2EPkBoj-39" value="Return to main menu&amp;nbsp;" style="shape=offPageConnector;whiteSpace=wrap;html=1;size=0.2375;" vertex="1" parent="1">
          <mxGeometry x="328" y="3766" width="80" height="80" as="geometry" />
        </mxCell>
        <mxCell id="4LVbHZIJ3RLVQ2EPkBoj-40" style="edgeStyle=orthogonalEdgeStyle;rounded=0;orthogonalLoop=1;jettySize=auto;html=1;entryX=0.6;entryY=0.063;entryDx=0;entryDy=0;entryPerimeter=0;" edge="1" parent="1" source="4LVbHZIJ3RLVQ2EPkBoj-38" target="4LVbHZIJ3RLVQ2EPkBoj-39">
          <mxGeometry relative="1" as="geometry" />
        </mxCell>
        <mxCell id="4LVbHZIJ3RLVQ2EPkBoj-45" style="edgeStyle=orthogonalEdgeStyle;rounded=0;orthogonalLoop=1;jettySize=auto;html=1;" edge="1" parent="1" source="4LVbHZIJ3RLVQ2EPkBoj-41" target="4LVbHZIJ3RLVQ2EPkBoj-46">
          <mxGeometry relative="1" as="geometry">
            <mxPoint x="388.5" y="4666" as="targetPoint" />
          </mxGeometry>
        </mxCell>
        <mxCell id="4LVbHZIJ3RLVQ2EPkBoj-41" value="get faculty name&lt;div&gt;from user&lt;/div&gt;" style="shape=parallelogram;perimeter=parallelogramPerimeter;whiteSpace=wrap;html=1;fixedSize=1;" vertex="1" parent="1">
          <mxGeometry x="269" y="4490" width="201" height="60" as="geometry" />
        </mxCell>
        <mxCell id="4LVbHZIJ3RLVQ2EPkBoj-46" value="get data for faculty and calculate FTE&lt;div&gt;for each course&amp;nbsp;&lt;/div&gt;" style="shape=parallelogram;perimeter=parallelogramPerimeter;whiteSpace=wrap;html=1;fixedSize=1;" vertex="1" parent="1">
          <mxGeometry x="241" y="4625" width="259" height="83" as="geometry" />
        </mxCell>
        <mxCell id="4LVbHZIJ3RLVQ2EPkBoj-47" value="Returns to main menu&lt;div&gt;&lt;br&gt;&lt;/div&gt;" style="shape=offPageConnector;whiteSpace=wrap;html=1;" vertex="1" parent="1">
          <mxGeometry x="298.5" y="4862" width="80" height="80" as="geometry" />
        </mxCell>
        <mxCell id="4LVbHZIJ3RLVQ2EPkBoj-48" style="edgeStyle=orthogonalEdgeStyle;rounded=0;orthogonalLoop=1;jettySize=auto;html=1;entryX=0.606;entryY=0.038;entryDx=0;entryDy=0;entryPerimeter=0;" edge="1" parent="1" source="4LVbHZIJ3RLVQ2EPkBoj-53" target="4LVbHZIJ3RLVQ2EPkBoj-47">
          <mxGeometry relative="1" as="geometry" />
        </mxCell>
        <mxCell id="4LVbHZIJ3RLVQ2EPkBoj-49" value="Option 4&lt;div&gt;&lt;br&gt;&lt;/div&gt;" style="text;html=1;align=center;verticalAlign=middle;resizable=0;points=[];autosize=1;strokeColor=none;fillColor=none;" vertex="1" parent="1">
          <mxGeometry x="60" y="4476" width="63" height="41" as="geometry" />
        </mxCell>
        <mxCell id="4LVbHZIJ3RLVQ2EPkBoj-59" style="edgeStyle=orthogonalEdgeStyle;rounded=0;orthogonalLoop=1;jettySize=auto;html=1;" edge="1" parent="1" source="4LVbHZIJ3RLVQ2EPkBoj-52" target="4LVbHZIJ3RLVQ2EPkBoj-60">
          <mxGeometry relative="1" as="geometry">
            <mxPoint x="373" y="5710" as="targetPoint" />
          </mxGeometry>
        </mxCell>
        <mxCell id="4LVbHZIJ3RLVQ2EPkBoj-52" value="get course code" style="shape=parallelogram;perimeter=parallelogramPerimeter;whiteSpace=wrap;html=1;fixedSize=1;" vertex="1" parent="1">
          <mxGeometry x="291" y="5575" width="214" height="60" as="geometry" />
        </mxCell>
        <mxCell id="4LVbHZIJ3RLVQ2EPkBoj-54" value="" style="edgeStyle=orthogonalEdgeStyle;rounded=0;orthogonalLoop=1;jettySize=auto;html=1;entryX=0.606;entryY=0.038;entryDx=0;entryDy=0;entryPerimeter=0;" edge="1" parent="1" source="4LVbHZIJ3RLVQ2EPkBoj-46" target="4LVbHZIJ3RLVQ2EPkBoj-53">
          <mxGeometry relative="1" as="geometry">
            <mxPoint x="389" y="4710" as="sourcePoint" />
            <mxPoint x="388" y="4953" as="targetPoint" />
          </mxGeometry>
        </mxCell>
        <mxCell id="4LVbHZIJ3RLVQ2EPkBoj-53" value="write the information to an excel file" style="shape=parallelogram;perimeter=parallelogramPerimeter;whiteSpace=wrap;html=1;fixedSize=1;" vertex="1" parent="1">
          <mxGeometry x="241" y="4757" width="213" height="60" as="geometry" />
        </mxCell>
        <mxCell id="4LVbHZIJ3RLVQ2EPkBoj-60" value="Calculate FTE per course&amp;nbsp;" style="shape=parallelogram;perimeter=parallelogramPerimeter;whiteSpace=wrap;html=1;fixedSize=1;" vertex="1" parent="1">
          <mxGeometry x="313.5" y="5698" width="169" height="60" as="geometry" />
        </mxCell>
        <mxCell id="4LVbHZIJ3RLVQ2EPkBoj-61" value="Write data to an&amp;nbsp;&lt;div&gt;excel file&amp;nbsp;&lt;/div&gt;" style="shape=parallelogram;perimeter=parallelogramPerimeter;whiteSpace=wrap;html=1;fixedSize=1;" vertex="1" parent="1">
          <mxGeometry x="310.5" y="5843" width="143.5" height="60" as="geometry" />
        </mxCell>
        <mxCell id="4LVbHZIJ3RLVQ2EPkBoj-67" style="edgeStyle=orthogonalEdgeStyle;rounded=0;orthogonalLoop=1;jettySize=auto;html=1;entryX=0.61;entryY=0.117;entryDx=0;entryDy=0;entryPerimeter=0;" edge="1" parent="1" source="4LVbHZIJ3RLVQ2EPkBoj-60" target="4LVbHZIJ3RLVQ2EPkBoj-61">
          <mxGeometry relative="1" as="geometry" />
        </mxCell>
        <mxCell id="4LVbHZIJ3RLVQ2EPkBoj-68" value="Return to main menu&amp;nbsp;" style="shape=offPageConnector;whiteSpace=wrap;html=1;" vertex="1" parent="1">
          <mxGeometry x="334" y="5939" width="80" height="80" as="geometry" />
        </mxCell>
        <mxCell id="4LVbHZIJ3RLVQ2EPkBoj-73" style="edgeStyle=orthogonalEdgeStyle;rounded=0;orthogonalLoop=1;jettySize=auto;html=1;entryX=0.613;entryY=0.038;entryDx=0;entryDy=0;entryPerimeter=0;" edge="1" parent="1" source="4LVbHZIJ3RLVQ2EPkBoj-61" target="4LVbHZIJ3RLVQ2EPkBoj-68">
          <mxGeometry relative="1" as="geometry" />
        </mxCell>
        <mxCell id="4LVbHZIJ3RLVQ2EPkBoj-74" value="Option 5&lt;div&gt;&lt;br&gt;&lt;/div&gt;" style="text;html=1;align=center;verticalAlign=middle;resizable=0;points=[];autosize=1;strokeColor=none;fillColor=none;" vertex="1" parent="1">
          <mxGeometry x="132" y="5538" width="63" height="41" as="geometry" />
        </mxCell>
        <mxCell id="4LVbHZIJ3RLVQ2EPkBoj-77" value="" style="edgeStyle=orthogonalEdgeStyle;rounded=0;orthogonalLoop=1;jettySize=auto;html=1;" edge="1" parent="1" source="e7oS5J1CF7U_wuVs62tT-2" target="4LVbHZIJ3RLVQ2EPkBoj-75">
          <mxGeometry relative="1" as="geometry">
            <mxPoint x="410" y="210" as="sourcePoint" />
            <mxPoint x="410" y="296" as="targetPoint" />
          </mxGeometry>
        </mxCell>
        <mxCell id="4LVbHZIJ3RLVQ2EPkBoj-75" value="Calculate FTE" style="shape=parallelogram;perimeter=parallelogramPerimeter;whiteSpace=wrap;html=1;fixedSize=1;" vertex="1" parent="1">
          <mxGeometry x="350" y="228" width="120" height="60" as="geometry" />
        </mxCell>
      </root>
    </mxGraphModel>
  </diagram>
  <diagram id="zIioV_GlrFxvP3DEHxY9" name="Enter \&quot;Sec Divisions\&quot; code">
    <mxGraphModel dx="1393" dy="803" grid="1" gridSize="10" guides="1" tooltips="1" connect="1" arrows="1" fold="1" page="1" pageScale="1" pageWidth="850" pageHeight="1100" math="0" shadow="0">
      <root>
        <mxCell id="0" />
        <mxCell id="1" parent="0" />
        <mxCell id="Xoa2CWhr8o5nAs08Nn_Z-3" value="" style="edgeStyle=orthogonalEdgeStyle;rounded=0;orthogonalLoop=1;jettySize=auto;html=1;" parent="1" source="Xoa2CWhr8o5nAs08Nn_Z-1" target="Xoa2CWhr8o5nAs08Nn_Z-2" edge="1">
          <mxGeometry relative="1" as="geometry" />
        </mxCell>
        <mxCell id="Xoa2CWhr8o5nAs08Nn_Z-1" value="Display Division codes&lt;div&gt;&lt;br&gt;&lt;/div&gt;&lt;div&gt;&lt;div style=&quot;text-align: left;&quot;&gt;1. All&lt;/div&gt;&lt;div style=&quot;text-align: left;&quot;&gt;&amp;nbsp;2. CBUS1&lt;/div&gt;&lt;div style=&quot;text-align: left;&quot;&gt;&amp;nbsp;3. CBUS3&lt;/div&gt;&lt;div style=&quot;text-align: left;&quot;&gt;&amp;nbsp;4. CGEN&lt;/div&gt;&lt;div style=&quot;text-align: left;&quot;&gt;&amp;nbsp;5. CGEN3&lt;/div&gt;&lt;div style=&quot;text-align: left;&quot;&gt;&amp;nbsp;6. CGEN4&lt;/div&gt;&lt;div style=&quot;text-align: left;&quot;&gt;&amp;nbsp;7. CGEN5&lt;/div&gt;&lt;div style=&quot;text-align: left;&quot;&gt;&amp;nbsp;8. CGEN6&lt;/div&gt;&lt;div style=&quot;text-align: left;&quot;&gt;&amp;nbsp;9. CHLT1&lt;/div&gt;&lt;div style=&quot;text-align: left;&quot;&gt;10. CHLT2&lt;/div&gt;&lt;div style=&quot;text-align: left;&quot;&gt;11. CSUPP&lt;/div&gt;&lt;div style=&quot;text-align: left;&quot;&gt;12. CTEC1&lt;/div&gt;&lt;div style=&quot;text-align: left;&quot;&gt;13. CTEC2&lt;/div&gt;&lt;div style=&quot;text-align: left;&quot;&gt;14. CTEC3&lt;/div&gt;&lt;/div&gt;" style="shape=parallelogram;perimeter=parallelogramPerimeter;whiteSpace=wrap;html=1;fixedSize=1;rounded=0;" parent="1" vertex="1">
          <mxGeometry x="240" y="60" width="320" height="240" as="geometry" />
        </mxCell>
        <mxCell id="Xoa2CWhr8o5nAs08Nn_Z-8" value="" style="edgeStyle=orthogonalEdgeStyle;rounded=0;orthogonalLoop=1;jettySize=auto;html=1;" parent="1" source="Xoa2CWhr8o5nAs08Nn_Z-2" target="Xoa2CWhr8o5nAs08Nn_Z-7" edge="1">
          <mxGeometry relative="1" as="geometry" />
        </mxCell>
        <mxCell id="FWlgG65jPlP8nv9Rbdqu-1" value="" style="edgeStyle=orthogonalEdgeStyle;rounded=0;orthogonalLoop=1;jettySize=auto;html=1;" parent="1" source="Xoa2CWhr8o5nAs08Nn_Z-2" target="Xoa2CWhr8o5nAs08Nn_Z-7" edge="1">
          <mxGeometry relative="1" as="geometry" />
        </mxCell>
        <mxCell id="Xoa2CWhr8o5nAs08Nn_Z-2" value="Get div code(s) from user" style="shape=parallelogram;perimeter=parallelogramPerimeter;whiteSpace=wrap;html=1;fixedSize=1;rounded=0;" parent="1" vertex="1">
          <mxGeometry x="317.5" y="340" width="165" height="60" as="geometry" />
        </mxCell>
        <mxCell id="Xoa2CWhr8o5nAs08Nn_Z-10" style="edgeStyle=orthogonalEdgeStyle;rounded=0;orthogonalLoop=1;jettySize=auto;html=1;exitX=0.5;exitY=1;exitDx=0;exitDy=0;entryX=0.5;entryY=0;entryDx=0;entryDy=0;" parent="1" source="Xoa2CWhr8o5nAs08Nn_Z-7" target="Xoa2CWhr8o5nAs08Nn_Z-9" edge="1">
          <mxGeometry relative="1" as="geometry" />
        </mxCell>
        <mxCell id="Xoa2CWhr8o5nAs08Nn_Z-7" value="Write div code(s)&#39;s data&lt;div&gt;&amp;nbsp;to its own Excel file&lt;/div&gt;" style="shape=parallelogram;perimeter=parallelogramPerimeter;whiteSpace=wrap;html=1;fixedSize=1;rounded=0;" parent="1" vertex="1">
          <mxGeometry x="295" y="470" width="210" height="60" as="geometry" />
        </mxCell>
        <mxCell id="Xoa2CWhr8o5nAs08Nn_Z-9" value="Return to main menu" style="shape=offPageConnector;whiteSpace=wrap;html=1;" parent="1" vertex="1">
          <mxGeometry x="360" y="590" width="80" height="80" as="geometry" />
        </mxCell>
        <mxCell id="wBjX8VcyA2q-dHfNeGn3-1" value="Option 1" style="text;html=1;align=center;verticalAlign=middle;resizable=0;points=[];autosize=1;strokeColor=none;fillColor=none;" vertex="1" parent="1">
          <mxGeometry x="15" y="8" width="70" height="30" as="geometry" />
        </mxCell>
      </root>
    </mxGraphModel>
  </diagram>
  <diagram id="RXFXUmCZn5E08XFLzYHM" name="Get Course Enrollment Percentage">
    <mxGraphModel dx="1393" dy="803" grid="1" gridSize="10" guides="1" tooltips="1" connect="1" arrows="1" fold="1" page="1" pageScale="1" pageWidth="850" pageHeight="1100" math="0" shadow="0">
      <root>
        <mxCell id="0" />
        <mxCell id="1" parent="0" />
        <mxCell id="nTOGouBSIeaTSrlyQPBf-2" value="" style="edgeStyle=orthogonalEdgeStyle;rounded=0;orthogonalLoop=1;jettySize=auto;html=1;" parent="1" source="rpowusud2MXc3qOODyFQ-1" target="nTOGouBSIeaTSrlyQPBf-1" edge="1">
          <mxGeometry relative="1" as="geometry" />
        </mxCell>
        <mxCell id="rpowusud2MXc3qOODyFQ-1" value="Get course code from user" style="shape=parallelogram;perimeter=parallelogramPerimeter;whiteSpace=wrap;html=1;fixedSize=1;" parent="1" vertex="1">
          <mxGeometry x="320" y="80" width="170" height="60" as="geometry" />
        </mxCell>
        <mxCell id="nTOGouBSIeaTSrlyQPBf-4" value="" style="edgeStyle=orthogonalEdgeStyle;rounded=0;orthogonalLoop=1;jettySize=auto;html=1;" parent="1" source="nTOGouBSIeaTSrlyQPBf-1" target="nTOGouBSIeaTSrlyQPBf-3" edge="1">
          <mxGeometry relative="1" as="geometry" />
        </mxCell>
        <mxCell id="nTOGouBSIeaTSrlyQPBf-1" value="Calculate enrollment percentage for course" style="whiteSpace=wrap;html=1;" parent="1" vertex="1">
          <mxGeometry x="345" y="220" width="120" height="60" as="geometry" />
        </mxCell>
        <mxCell id="BSJOfeekkz_s7tNW2E7Q-4" style="edgeStyle=orthogonalEdgeStyle;rounded=0;orthogonalLoop=1;jettySize=auto;html=1;exitX=0.5;exitY=1;exitDx=0;exitDy=0;entryX=0.5;entryY=0;entryDx=0;entryDy=0;" parent="1" source="nTOGouBSIeaTSrlyQPBf-3" target="BSJOfeekkz_s7tNW2E7Q-2" edge="1">
          <mxGeometry relative="1" as="geometry" />
        </mxCell>
        <mxCell id="nTOGouBSIeaTSrlyQPBf-3" value="Write information to an Excel File" style="shape=parallelogram;perimeter=parallelogramPerimeter;whiteSpace=wrap;html=1;fixedSize=1;" parent="1" vertex="1">
          <mxGeometry x="296.25" y="360" width="217.5" height="80" as="geometry" />
        </mxCell>
        <mxCell id="BSJOfeekkz_s7tNW2E7Q-2" value="Return to Main Menu" style="shape=offPageConnector;whiteSpace=wrap;html=1;" parent="1" vertex="1">
          <mxGeometry x="365" y="530" width="80" height="80" as="geometry" />
        </mxCell>
        <mxCell id="9aGKPTuWwiKm3lYDlf0u-1" value="Option 2" style="text;html=1;align=center;verticalAlign=middle;resizable=0;points=[];autosize=1;strokeColor=none;fillColor=none;" vertex="1" parent="1">
          <mxGeometry x="65" y="18" width="70" height="30" as="geometry" />
        </mxCell>
      </root>
    </mxGraphModel>
  </diagram>
  <diagram id="HFbPF7RIKvFfyCsrzqMi" name="FTE by Division">
    <mxGraphModel dx="1393" dy="803" grid="1" gridSize="10" guides="1" tooltips="1" connect="1" arrows="1" fold="1" page="1" pageScale="1" pageWidth="850" pageHeight="1100" math="0" shadow="0">
      <root>
        <mxCell id="0" />
        <mxCell id="1" parent="0" />
        <mxCell id="VCh93svPHD91yDApf5lP-5" value="" style="edgeStyle=orthogonalEdgeStyle;rounded=0;orthogonalLoop=1;jettySize=auto;html=1;" parent="1" source="VCh93svPHD91yDApf5lP-1" target="VCh93svPHD91yDApf5lP-4" edge="1">
          <mxGeometry relative="1" as="geometry" />
        </mxCell>
        <mxCell id="VCh93svPHD91yDApf5lP-1" value="Get Division Code from user" style="shape=parallelogram;perimeter=parallelogramPerimeter;whiteSpace=wrap;html=1;fixedSize=1;" parent="1" vertex="1">
          <mxGeometry x="320" y="50" width="200" height="60" as="geometry" />
        </mxCell>
        <mxCell id="VCh93svPHD91yDApf5lP-7" style="edgeStyle=orthogonalEdgeStyle;rounded=0;orthogonalLoop=1;jettySize=auto;html=1;exitX=0.5;exitY=1;exitDx=0;exitDy=0;entryX=0.5;entryY=0;entryDx=0;entryDy=0;" parent="1" source="VCh93svPHD91yDApf5lP-4" target="VCh93svPHD91yDApf5lP-6" edge="1">
          <mxGeometry relative="1" as="geometry" />
        </mxCell>
        <mxCell id="VCh93svPHD91yDApf5lP-4" value="Write data for division to&amp;nbsp;&lt;div&gt;it&#39;s own Excel File&lt;/div&gt;" style="shape=parallelogram;perimeter=parallelogramPerimeter;whiteSpace=wrap;html=1;fixedSize=1;" parent="1" vertex="1">
          <mxGeometry x="320" y="190" width="200" height="60" as="geometry" />
        </mxCell>
        <mxCell id="VCh93svPHD91yDApf5lP-6" value="Return to Main Menu" style="shape=offPageConnector;whiteSpace=wrap;html=1;" parent="1" vertex="1">
          <mxGeometry x="380" y="370" width="80" height="80" as="geometry" />
        </mxCell>
        <mxCell id="wmcQGtlemI1XrrVjc4Vd-1" value="Option 3" style="text;html=1;align=center;verticalAlign=middle;resizable=0;points=[];autosize=1;strokeColor=none;fillColor=none;" vertex="1" parent="1">
          <mxGeometry x="35" y="8" width="70" height="30" as="geometry" />
        </mxCell>
      </root>
    </mxGraphModel>
  </diagram>
  <diagram id="M041L4Ai0h3rDijDeTI5" name="FTE per Instructor">
    <mxGraphModel dx="1393" dy="803" grid="1" gridSize="10" guides="1" tooltips="1" connect="1" arrows="1" fold="1" page="1" pageScale="1" pageWidth="850" pageHeight="1100" math="0" shadow="0">
      <root>
        <mxCell id="0" />
        <mxCell id="1" parent="0" />
        <mxCell id="KSYhCPTjDiQLJnJpFN7--3" value="" style="edgeStyle=orthogonalEdgeStyle;rounded=0;orthogonalLoop=1;jettySize=auto;html=1;" parent="1" source="KSYhCPTjDiQLJnJpFN7--1" target="KSYhCPTjDiQLJnJpFN7--2" edge="1">
          <mxGeometry relative="1" as="geometry" />
        </mxCell>
        <mxCell id="KSYhCPTjDiQLJnJpFN7--1" value="Get Faculty name&lt;div&gt;&amp;nbsp;from user&lt;/div&gt;" style="shape=parallelogram;perimeter=parallelogramPerimeter;whiteSpace=wrap;html=1;fixedSize=1;" parent="1" vertex="1">
          <mxGeometry x="310" y="80" width="170" height="60" as="geometry" />
        </mxCell>
        <mxCell id="KSYhCPTjDiQLJnJpFN7--5" value="" style="edgeStyle=orthogonalEdgeStyle;rounded=0;orthogonalLoop=1;jettySize=auto;html=1;" parent="1" source="KSYhCPTjDiQLJnJpFN7--2" target="KSYhCPTjDiQLJnJpFN7--4" edge="1">
          <mxGeometry relative="1" as="geometry" />
        </mxCell>
        <mxCell id="KSYhCPTjDiQLJnJpFN7--2" value="Get Data for Faculty and calculate FTE for each course" style="whiteSpace=wrap;html=1;" parent="1" vertex="1">
          <mxGeometry x="335" y="220" width="120" height="60" as="geometry" />
        </mxCell>
        <mxCell id="KSYhCPTjDiQLJnJpFN7--7" style="edgeStyle=orthogonalEdgeStyle;rounded=0;orthogonalLoop=1;jettySize=auto;html=1;exitX=0.5;exitY=1;exitDx=0;exitDy=0;" parent="1" source="KSYhCPTjDiQLJnJpFN7--4" target="KSYhCPTjDiQLJnJpFN7--6" edge="1">
          <mxGeometry relative="1" as="geometry" />
        </mxCell>
        <mxCell id="KSYhCPTjDiQLJnJpFN7--4" value="Write the information&lt;div&gt;&amp;nbsp;to an Excel file&lt;/div&gt;" style="shape=parallelogram;perimeter=parallelogramPerimeter;whiteSpace=wrap;html=1;fixedSize=1;" parent="1" vertex="1">
          <mxGeometry x="312.5" y="360" width="165" height="60" as="geometry" />
        </mxCell>
        <mxCell id="KSYhCPTjDiQLJnJpFN7--6" value="Return to Main menu" style="shape=offPageConnector;whiteSpace=wrap;html=1;" parent="1" vertex="1">
          <mxGeometry x="355" y="500" width="80" height="80" as="geometry" />
        </mxCell>
        <mxCell id="hvP_s3hiE0UlEs6Hw-VD-1" value="Option 4" style="text;html=1;align=center;verticalAlign=middle;resizable=0;points=[];autosize=1;strokeColor=none;fillColor=none;" vertex="1" parent="1">
          <mxGeometry x="35" y="28" width="70" height="30" as="geometry" />
        </mxCell>
      </root>
    </mxGraphModel>
  </diagram>
  <diagram id="6xTd4gdZnvuFh-PzYsSR" name="FTE per course">
    <mxGraphModel dx="1393" dy="803" grid="1" gridSize="10" guides="1" tooltips="1" connect="1" arrows="1" fold="1" page="1" pageScale="1" pageWidth="850" pageHeight="1100" math="0" shadow="0">
      <root>
        <mxCell id="0" />
        <mxCell id="1" parent="0" />
        <mxCell id="LeMdKtSmenONURMCRj65-3" value="" style="edgeStyle=orthogonalEdgeStyle;rounded=0;orthogonalLoop=1;jettySize=auto;html=1;" parent="1" source="LeMdKtSmenONURMCRj65-1" target="LeMdKtSmenONURMCRj65-2" edge="1">
          <mxGeometry relative="1" as="geometry" />
        </mxCell>
        <mxCell id="LeMdKtSmenONURMCRj65-1" value="Get Sec Name&lt;div&gt;from user&lt;/div&gt;" style="shape=parallelogram;perimeter=parallelogramPerimeter;whiteSpace=wrap;html=1;fixedSize=1;" parent="1" vertex="1">
          <mxGeometry x="350" y="80" width="120" height="60" as="geometry" />
        </mxCell>
        <mxCell id="LeMdKtSmenONURMCRj65-2" value="Calculate FTE for each course" style="whiteSpace=wrap;html=1;" parent="1" vertex="1">
          <mxGeometry x="350" y="220" width="120" height="60" as="geometry" />
        </mxCell>
        <mxCell id="LeMdKtSmenONURMCRj65-7" style="edgeStyle=orthogonalEdgeStyle;rounded=0;orthogonalLoop=1;jettySize=auto;html=1;exitX=0.5;exitY=1;exitDx=0;exitDy=0;entryX=0.5;entryY=0;entryDx=0;entryDy=0;" parent="1" source="LeMdKtSmenONURMCRj65-4" target="LeMdKtSmenONURMCRj65-6" edge="1">
          <mxGeometry relative="1" as="geometry" />
        </mxCell>
        <mxCell id="LeMdKtSmenONURMCRj65-4" value="Write data to&lt;div&gt;&amp;nbsp;an Excel file&lt;/div&gt;" style="shape=parallelogram;perimeter=parallelogramPerimeter;whiteSpace=wrap;html=1;fixedSize=1;" parent="1" vertex="1">
          <mxGeometry x="340" y="340" width="120" height="60" as="geometry" />
        </mxCell>
        <mxCell id="LeMdKtSmenONURMCRj65-5" style="edgeStyle=orthogonalEdgeStyle;rounded=0;orthogonalLoop=1;jettySize=auto;html=1;exitX=0.5;exitY=1;exitDx=0;exitDy=0;entryX=0.583;entryY=-0.017;entryDx=0;entryDy=0;entryPerimeter=0;" parent="1" source="LeMdKtSmenONURMCRj65-2" target="LeMdKtSmenONURMCRj65-4" edge="1">
          <mxGeometry relative="1" as="geometry" />
        </mxCell>
        <mxCell id="LeMdKtSmenONURMCRj65-6" value="Return to main meny" style="shape=offPageConnector;whiteSpace=wrap;html=1;" parent="1" vertex="1">
          <mxGeometry x="360" y="510" width="80" height="80" as="geometry" />
        </mxCell>
        <mxCell id="-RTyzYk483RRzjOs2kfo-1" value="Option 5" style="text;html=1;align=center;verticalAlign=middle;resizable=0;points=[];autosize=1;strokeColor=none;fillColor=none;" vertex="1" parent="1">
          <mxGeometry x="35" y="28" width="70" height="30" as="geometry" />
        </mxCell>
      </root>
    </mxGraphModel>
  </diagram>
</mxfile>
